<?xml version="1.0" standalone="no"?>
<!DOCTYPE svg PUBLIC "-//W3C//DTD SVG 20010904//EN"
 "http://www.w3.org/TR/2001/REC-SVG-20010904/DTD/svg10.dtd">
<svg version="1.0" xmlns="http://www.w3.org/2000/svg"
 width="246.000000pt" height="256.000000pt" viewBox="0 0 246.000000 256.000000"
 preserveAspectRatio="xMidYMid meet">
<metadata>
Created by potrace 1.16, written by Peter Selinger 2001-2019
</metadata>
<g transform="translate(0.000000,256.000000) scale(0.100000,-0.100000)"
fill="currentColor" stroke="none">
<path d="M1513 2166 c-110 -27 -232 -110 -294 -200 l-24 -36 -172 0 -173 0 -1
-52 c-1 -29 -2 -209 -3 -400 l-1 -348 48 0 47 0 0 350 0 350 154 0 153 0 37
60 c115 186 370 247 562 134 102 -60 188 -194 200 -312 l7 -62 -70 0 -70 0 -5
48 c-6 64 -34 119 -85 169 -102 98 -278 98 -381 0 -58 -55 -86 -121 -85 -202
0 -82 18 -128 70 -186 45 -50 95 -75 243 -124 63 -21 141 -51 174 -67 308
-155 296 -601 -22 -751 -62 -30 -75 -32 -172 -32 -97 0 -110 2 -170 31 -81 39
-145 96 -187 165 -33 55 -63 151 -63 201 0 28 0 28 70 28 l70 0 0 -28 c0 -94
83 -207 178 -242 187 -71 382 62 382 260 0 102 -44 179 -131 236 -20 12 -99
43 -174 69 -223 74 -305 131 -365 252 -30 60 -35 79 -38 166 l-4 97 -49 0 -49
0 0 -67 c0 -149 52 -274 154 -371 73 -71 157 -115 316 -167 180 -58 228 -95
245 -186 23 -124 -105 -241 -228 -208 -97 25 -140 90 -141 209 l-1 75 -306 3
-307 2 -7 -238 c-4 -132 -4 -249 0 -261 6 -20 3 -21 -67 -21 l-73 0 -2 708 -2
707 -176 3 -175 2 0 70 0 70 413 0 412 1 55 49 55 50 -517 0 -518 0 0 -170 0
-170 180 0 180 0 0 -710 0 -710 165 0 165 0 0 259 0 258 51 6 c28 4 70 4 93 1
l42 -6 16 -84 c21 -109 62 -195 128 -267 66 -73 121 -110 207 -144 93 -36 248
-38 338 -5 182 67 319 235 346 424 22 152 -38 324 -149 431 -79 75 -131 102
-299 158 -81 27 -164 60 -186 75 -72 48 -96 148 -56 232 54 110 201 132 290
43 43 -42 59 -91 59 -178 l0 -63 165 0 165 0 0 73 c-1 267 -163 485 -401 542
-76 18 -165 18 -236 1z"/>
</g>
</svg>
